# xmcd
#
# Track frame offsets:
#	150
#	28322
#	52352
#	77970
#	100645
#	123087
#	146692
#	171227
#	176057
#	201112
#	223275
#
# Disc length: 3328 seconds
#
# Revision: 1
# Processed by: cddbd v1.5.1PL0 Copyright (c) Steve Scherf et al.
# Submitted via: CDex 1.50Beta5
#
DISCID=a90cfe0b
DTITLE=町支寛二 - ひき潮
DYEAR=1993
DGENRE=Rock
TTITLE0=もう会えなくなるよ
TTITLE1=個人教授
TTITLE2=夏の向こう側
TTITLE3=幸福
TTITLE4=ナナ
TTITLE5=裸足のダンサー
TTITLE6=Watermark
TTITLE7=Day Watcher
TTITLE8=News Magic
TTITLE9=遥かなるスタジアム
TTITLE10=ひき潮
EXTD=
EXTT0=
EXTT1=
EXTT2=
EXTT3=
EXTT4=
EXTT5=
EXTT6=
EXTT7=
EXTT8=
EXTT9=
EXTT10=
PLAYORDER=
